<svg xmlns="http://www.w3.org/2000/svg" version="1.1" xmlns:xlink="http://www.w3.org/1999/xlink" xmlns:svgjs="http://svgjs.dev/svgjs" width="1920" height="1080" preserveAspectRatio="none" viewBox="0 0 1920 1080"><g mask="url(&quot;#SvgjsMask1075&quot;)" fill="none"><rect width="1920" height="1080" x="0" y="0" fill="#1e3266"></rect><path d="M1952 1080L0 1080 L0 594.85Q119.88 554.73, 160 674.6Q229.01 583.61, 320 652.62Q327.23 563.85, 416 571.08Q426.91 485.99, 512 496.9Q605.26 430.16, 672 523.42Q795.76 551.18, 768 674.95Q731.95 542.9, 864 506.86Q948.2 495.06, 960 579.26Q1066.74 590, 1056 696.74Q1050.32 595.06, 1152 589.38Q1217.68 495.06, 1312 560.73Q1456.62 545.35, 1472 689.97Q1509.34 631.31, 1568 668.64Q1563.03 567.67, 1664 562.7Q1679.15 481.85, 1760 497Q1817.24 458.24, 1856 515.47Q1970.23 533.71, 1952 647.94z" fill="#182f5d"></path><path d="M2016 1080L0 1080 L0 715.52Q51.31 670.83, 96 722.14Q154.27 620.41, 256 678.69Q289.3 616, 352 649.3Q425.26 626.56, 448 699.82Q501.43 657.25, 544 710.68Q624.46 695.13, 640 775.59Q664.92 640.51, 800 665.43Q860.66 630.09, 896 690.74Q1016.61 715.35, 992 835.96Q976.22 660.18, 1152 644.41Q1323.42 655.83, 1312 827.25Q1397.85 753.1, 1472 838.94Q1498.33 769.27, 1568 795.6Q1596.34 663.94, 1728 692.29Q1769.69 637.98, 1824 679.68Q1911.38 671.05, 1920 758.43Q1999.02 741.45, 2016 820.47z" fill="#25467d"></path><path d="M1984 1080L0 1080 L0 840.55Q55.21 799.75, 96 854.96Q150.78 813.74, 192 868.52Q245.41 825.93, 288 879.34Q338.13 769.47, 448 819.59Q571.54 783.13, 608 906.67Q702.69 841.36, 768 936.05Q841.09 913.14, 864 986.23Q901.35 927.58, 960 964.93Q932.27 841.2, 1056 813.48Q1199.63 797.12, 1216 940.75Q1250.24 878.99, 1312 913.23Q1400.45 841.68, 1472 930.14Q1528.38 890.52, 1568 946.9Q1625.52 844.42, 1728 901.95Q1847.27 861.23, 1888 980.5Q1903.79 900.29, 1984 916.08z" fill="#356cb1"></path><path d="M2016 1080L0 1080 L0 1132.07Q-27.26 1008.81, 96 981.55Q128.64 918.19, 192 950.84Q267.99 930.83, 288 1006.82Q403.17 961.99, 448 1077.15Q508.9 978.05, 608 1038.95Q638.48 909.43, 768 939.92Q854.21 866.13, 928 952.34Q1062.51 926.86, 1088 1061.37Q1199.29 1012.65, 1248 1123.94Q1290.71 1070.65, 1344 1113.37Q1361.38 970.74, 1504 988.12Q1561.18 949.31, 1600 1006.49Q1709.09 955.58, 1760 1064.66Q1853.97 998.63, 1920 1092.61Q1948.19 1024.8, 2016 1052.99z" fill="white"></path></g><defs><mask id="SvgjsMask1075"><rect width="1920" height="1080" fill="#ffffff"></rect></mask></defs></svg>